# xmcd
#
# Track frame offsets: 
#        150
#        13840
#        29430
#        42620
#        70538
#        91490
#        110558
#        141683
#        157391
#        171621
#        187761
#        204201
#        233031
#        247480
#        262722
#        278882
#        297730
#        313461
#        330301
#
# Disc length: 4615 seconds
#
# Revision: 0
# Processed by: cddbd v1.5.2PL0 Copyright (c) Steve Scherf et al.
# Submitted via: ExactAudioCopy v1.0b3
#
DISCID=2e120513
DTITLE=Various Artist - Was Geht Ab?! - Wir Tanzen Deutsch Vol. 3 - CD 1
DYEAR=1900
DGENRE=
TTITLE0=Durchblick - Füsse Im Sand (Radio Mix)
TTITLE1=Monoloop - Träumen (Original Radio Mix)
TTITLE2=Speedy 22 Pres. Don Ronson - Tanz Mit Mir (DJ Bomba Radio Cut)
TTITLE3=Chris Galmon Vs. N.D.A. - Freunde (Club Mix)
TTITLE4=DJ Scoundrel 69 Feat. Martin Jones - Nacht Aus Schwarzem Samt 
TTITLE4=(DJ Maxi Mix)
TTITLE5=Dr. Bass - Bassinfusion (Original)
TTITLE6=Tuchama and Kerkhoff - Auf Geht's (Original Mix)
TTITLE7=Minimal Vanessa - Ich Kenn' Dich Vom Sehen (Sven Kuhlmann Edit
TTITLE7=)
TTITLE8=Arnold Beck - Lieben (Original Mix)
TTITLE9=Tinelavita - Legen Sie Einfach Auf (Short Mix)
TTITLE10=Steven W. Feat. Nia Day - Mila Ist 12 Jahre Alt (Radio Edit)
TTITLE11=Raumakustik - Glaub Mir Doch So Wird Das Nichts
TTITLE12=Moritz and Der Zauberer - Bis Heute (Radio Mix)
TTITLE13=Sven Kuhlmann Vs. Disko Punks - Discozeit (Short Cut)
TTITLE14=Chris Fuentes Feat. Deniz Kara - Mädchen
TTITLE15=Cris Cosmo Feat. Cherie - Ohne Dich (Taste-T Remix)
TTITLE16=Magvay and Novskyy Feat. Lize - Graf Cox (Sexy Girl) (Klik Klak
TTITLE16=Radio)
TTITLE17=Jaques Raupé - Pusteblume (Radio Edit)
TTITLE18=Hypnotic Grooves Feat. Jo Van Nelsen - Der Erdbeermund (Short
TTITLE18=Club Mix)
EXTD=
EXTT0=
EXTT1=
EXTT2=
EXTT3=
EXTT4=
EXTT5=
EXTT6=
EXTT7=
EXTT8=
EXTT9=
EXTT10=
EXTT11=
EXTT12=
EXTT13=
EXTT14=
EXTT15=
EXTT16=
EXTT17=
EXTT18=
PLAYORDER=
